# xmcd CD database file
#
# Track frame offsets:
#	150
#	60318
#	98342
#	126351
#	156586
#	194070
#	222856
#	253768
#	274799
#	318187
#
# Disc length: 4599 seconds
#
# Revision: 0
# Processed by: cddbd v1.5.2PL0 Copyright (c) Steve Scherf et al.
# Submitted via: CDex 1.70beta2
#
DISCID=9011f50a
DTITLE=Pat Metheny - From This Place
DYEAR=2020
DGENRE=Jazz
TTITLE0=America Undefined
TTITLE1=Wide And Far
TTITLE2=You Are
TTITLE3=Same River
TTITLE4=Pathmaker
TTITLE5=The Past In Us
TTITLE6=Everything Explained
TTITLE7=From This Place
TTITLE8=Sixty-Six
TTITLE9=Love May Take A While
EXTD=YEAR: 2020
EXTT0=
EXTT1=
EXTT2=
EXTT3=
EXTT4=
EXTT5=
EXTT6=
EXTT7=
EXTT8=
EXTT9=
PLAYORDER=
